<svg width="34px" height="34px" viewBox="-276.48 -276.48 1576.96 1576.96" xmlns="http://www.w3.org/2000/svg" fill="#ffffff" stroke="#ffffff"><g id="SVGRepo_bgCarrier" stroke-width="0"><rect x="-276.48" y="-276.48" width="1576.96" height="1576.96" rx="473.088" fill="#fd5d5d" strokewidth="0"></rect></g><g id="SVGRepo_tracerCarrier" stroke-linecap="round" stroke-linejoin="round"></g><g id="SVGRepo_iconCarrier"><path fill="#ffffff" d="M160 256H96a32 32 0 0 1 0-64h256V95.936a32 32 0 0 1 32-32h256a32 32 0 0 1 32 32V192h256a32 32 0 1 1 0 64h-64v672a32 32 0 0 1-32 32H192a32 32 0 0 1-32-32V256zm448-64v-64H416v64h192zM224 896h576V256H224v640zm192-128a32 32 0 0 1-32-32V416a32 32 0 0 1 64 0v320a32 32 0 0 1-32 32zm192 0a32 32 0 0 1-32-32V416a32 32 0 0 1 64 0v320a32 32 0 0 1-32 32z"></path></g></svg>